<?xml version="1.0" encoding="iso-8859-1"?>
<!-- Generator: Adobe Illustrator 19.0.0, SVG Export Plug-In . SVG Version: 6.00 Build 0)  -->
<svg version="1.1" id="Layer_1" xmlns="http://www.w3.org/2000/svg" xmlns:xlink="http://www.w3.org/1999/xlink" x="0px" y="0px"
	 viewBox="0 0 512 512" style="enable-background:new 0 0 512 512;" xml:space="preserve">
<path style="fill:#8AE9FF;" d="M185.561,490.761l189.945-212.866c11.131-12.474,11.131-31.315,0-43.789L185.561,21.241
	c-20.112-22.539-57.421-8.313-57.421,21.895v425.731C128.14,499.073,165.449,513.3,185.561,490.761z"/>
<g>
	<path style="fill:#248A9C;" d="M161.167,512c-5.174,0-10.414-0.94-15.494-2.876c-16.848-6.425-27.734-22.226-27.734-40.258V43.135
		c0-18.031,10.886-33.834,27.734-40.258c16.849-6.425,35.491-1.883,47.497,11.573l189.947,212.865
		c14.592,16.353,14.592,41.019,0,57.372L193.171,497.552l0,0C184.785,506.951,173.158,512,161.167,512z M161.285,20.407
		c-3.009,0-5.872,0.59-8.341,1.531c-7.059,2.693-14.603,9.674-14.603,21.196v425.732c0,11.523,7.544,18.505,14.603,21.196
		c7.059,2.691,17.336,2.505,25.008-6.093l189.945-212.865c7.684-8.61,7.684-21.597,0-30.207L177.951,28.032
		C172.964,22.442,166.874,20.407,161.285,20.407z"/>
	<path style="fill:#248A9C;" d="M239.419,141.895c-2.805,0-5.599-1.151-7.613-3.409l-4.669-5.233
		c-3.75-4.202-3.384-10.65,0.819-14.401c4.202-3.752,10.65-3.384,14.401,0.819l4.669,5.233c3.75,4.202,3.384,10.65-0.819,14.401
		C244.261,141.041,241.835,141.895,239.419,141.895z"/>
	<path style="fill:#248A9C;" d="M348.82,264.498c-2.806,0-5.599-1.151-7.614-3.409l-85.937-96.307
		c-3.75-4.203-3.383-10.651,0.82-14.401c4.202-3.751,10.651-3.382,14.401,0.819l85.937,96.307c3.75,4.203,3.383,10.651-0.819,14.401
		C353.663,263.645,351.237,264.498,348.82,264.498z"/>
</g>
<g>
</g>
<g>
</g>
<g>
</g>
<g>
</g>
<g>
</g>
<g>
</g>
<g>
</g>
<g>
</g>
<g>
</g>
<g>
</g>
<g>
</g>
<g>
</g>
<g>
</g>
<g>
</g>
<g>
</g>
</svg>
